<svg xmlns="http://www.w3.org/2000/svg" xmlns:xlink="http://www.w3.org/1999/xlink" width="500" zoomAndPan="magnify" viewBox="0 0 375 374.999991" height="500" preserveAspectRatio="xMidYMid meet" version="1.0"><path fill="#9c1066" d="M 218.8125 88.519531 C 217.457031 90.867188 216.105469 93.214844 214.789062 95.601562 C 213.515625 97.910156 212.242188 100.257812 211.007812 102.605469 C 209.335938 105.789062 207.703125 109.011719 206.152344 112.234375 C 203.921875 116.773438 201.8125 121.386719 199.742188 125.964844 C 192.695312 141.921875 186.644531 158.117188 181.507812 173.832031 C 178.960938 181.671875 176.613281 189.390625 174.503906 196.914062 C 173.707031 199.816406 172.910156 202.640625 172.152344 205.46875 C 170.640625 211.15625 169.246094 216.6875 167.972656 222.019531 C 167.414062 224.289062 166.898438 226.515625 166.378906 228.746094 C 166.179688 229.660156 165.941406 230.578125 165.742188 231.492188 C 164.789062 235.789062 163.871094 239.96875 163.035156 243.945312 C 162.558594 246.214844 162.121094 248.441406 161.683594 250.632812 C 161.644531 250.832031 161.601562 251.027344 161.5625 251.1875 C 160.488281 256.71875 159.53125 261.851562 158.738281 266.546875 C 158.617188 267.304688 158.5 268.058594 158.339844 268.777344 C 157.980469 270.804688 157.660156 272.753906 157.382812 274.625 C 156.945312 277.25 156.585938 279.679688 156.230469 281.90625 C 154.796875 290.941406 154 296.113281 154 296.113281 L 144.722656 293.964844 L 96.511719 282.742188 C 99.019531 260.660156 103.679688 238.175781 109.292969 216.648438 C 109.570312 215.65625 109.808594 214.621094 110.089844 213.625 C 110.84375 210.761719 111.640625 207.933594 112.4375 205.109375 C 113.910156 199.9375 115.382812 194.84375 116.933594 189.828125 C 117.332031 188.554688 117.691406 187.324219 118.089844 186.089844 C 118.210938 185.652344 118.367188 185.214844 118.488281 184.816406 C 120.835938 177.296875 123.265625 170.054688 125.652344 163.089844 C 127.84375 156.761719 130.035156 150.675781 132.183594 144.90625 C 132.300781 144.546875 132.460938 144.1875 132.582031 143.832031 C 133.457031 141.484375 134.332031 139.175781 135.207031 136.90625 C 135.367188 136.546875 135.488281 136.191406 135.648438 135.832031 C 137.398438 131.257812 139.109375 126.957031 140.742188 122.941406 C 140.742188 122.941406 140.742188 122.898438 140.742188 122.898438 C 141.378906 121.347656 141.976562 119.875 142.574219 118.402344 C 144.046875 114.78125 145.480469 111.441406 146.753906 108.414062 C 148.464844 104.398438 149.980469 100.933594 151.253906 98.070312 C 151.253906 98.03125 151.292969 97.992188 151.292969 97.992188 C 154 91.902344 155.632812 88.519531 155.632812 88.519531 Z M 218.8125 88.519531 " fill-opacity="1" fill-rule="nonzero"/><path fill="#7d064f" d="M 214.789062 95.601562 C 213.515625 97.910156 212.242188 100.257812 211.007812 102.605469 C 209.335938 105.789062 207.703125 109.011719 206.152344 112.234375 C 203.921875 116.773438 201.8125 121.386719 199.742188 125.964844 C 192.695312 141.921875 186.644531 158.117188 181.507812 173.832031 C 178.960938 181.671875 176.613281 189.390625 174.503906 196.914062 C 173.707031 199.816406 172.910156 202.644531 172.152344 205.46875 C 170.640625 211.15625 169.246094 216.6875 167.972656 222.019531 C 164.90625 170.96875 148.863281 136.988281 140.863281 122.941406 C 140.863281 122.941406 140.863281 122.898438 140.863281 122.898438 C 141.5 121.347656 142.097656 119.875 142.691406 118.402344 C 144.167969 114.78125 145.597656 111.441406 146.875 108.414062 C 148.585938 104.398438 150.097656 100.933594 151.371094 98.070312 C 151.371094 98.03125 151.410156 97.992188 151.410156 97.992188 C 154.117188 91.902344 155.75 88.519531 155.75 88.519531 L 214.234375 88.519531 C 214.472656 90.46875 214.632812 92.855469 214.789062 95.601562 Z M 214.789062 95.601562 " fill-opacity="1" fill-rule="nonzero"/><path fill="#570035" d="M 218.8125 88.519531 C 216.105469 93.136719 213.515625 97.832031 211.007812 102.605469 C 209.335938 105.789062 207.703125 109.011719 206.152344 112.234375 C 203.921875 116.773438 201.8125 121.386719 199.742188 125.964844 C 192.695312 141.921875 186.644531 158.117188 181.507812 173.832031 C 178.960938 181.671875 176.613281 189.390625 174.503906 196.914062 C 168.410156 120.195312 151.453125 97.992188 151.453125 97.992188 L 155.789062 88.519531 Z M 218.8125 88.519531 " fill-opacity="1" fill-rule="nonzero"/><path fill="#ab0c6e" d="M 278.050781 282.824219 L 277.972656 282.824219 L 252.492188 288.710938 L 250.699219 289.109375 L 243.015625 290.902344 L 220.164062 296.152344 C 220.164062 296.152344 219.328125 288.113281 217.21875 274.664062 C 216.980469 273.074219 216.703125 271.402344 216.421875 269.691406 C 216.382812 269.414062 216.34375 269.132812 216.265625 268.855469 C 216.144531 268.140625 216.023438 267.382812 215.90625 266.628906 C 215.109375 261.933594 214.152344 256.800781 213.078125 251.269531 C 212.71875 249.476562 212.363281 247.648438 212.003906 245.777344 C 211.882812 245.179688 211.605469 243.90625 211.605469 243.828125 C 211.605469 243.789062 211.566406 243.746094 211.566406 243.707031 C 211.566406 243.707031 211.089844 241.480469 210.890625 240.363281 C 208.621094 229.699219 205.875 217.960938 202.570312 205.546875 C 200.898438 199.21875 199.027344 192.734375 197.035156 186.128906 C 195.800781 182.109375 194.527344 178.011719 193.214844 173.914062 C 189.75 163.328125 185.886719 152.503906 181.589844 141.722656 C 179.476562 136.46875 177.289062 131.257812 174.980469 126.003906 C 172.949219 121.386719 170.800781 116.8125 168.570312 112.277344 C 166.976562 109.050781 165.386719 105.828125 163.714844 102.644531 C 161.207031 97.871094 158.617188 93.175781 155.910156 88.558594 L 218.890625 88.558594 C 218.890625 88.558594 220.523438 91.941406 223.230469 98.03125 C 225.898438 103.960938 229.5625 112.476562 233.820312 122.980469 C 233.980469 123.335938 234.097656 123.734375 234.257812 124.09375 C 236.6875 130.101562 239.273438 136.746094 241.980469 143.910156 C 244.25 150 246.601562 156.445312 248.949219 163.167969 C 251.378906 170.09375 253.765625 177.375 256.113281 184.894531 C 256.234375 185.332031 256.394531 185.730469 256.511719 186.167969 C 256.910156 187.402344 257.269531 188.636719 257.667969 189.910156 C 259.21875 194.921875 260.691406 200.015625 262.164062 205.1875 C 262.960938 208.015625 263.757812 210.839844 264.515625 213.703125 C 264.792969 214.699219 265.070312 215.734375 265.3125 216.730469 C 270.925781 238.214844 275.582031 260.699219 278.089844 282.742188 C 278.050781 282.742188 278.050781 282.78125 278.050781 282.824219 Z M 278.050781 282.824219 " fill-opacity="1" fill-rule="nonzero"/><path fill="#9c1066" d="M 278.050781 282.742188 L 277.972656 282.824219 L 252.492188 288.710938 C 238.359375 274.707031 224.742188 259.664062 211.726562 244.027344 C 211.644531 243.945312 211.605469 243.90625 211.527344 243.828125 C 211.527344 243.789062 211.488281 243.746094 211.488281 243.707031 C 211.246094 242.59375 211.007812 241.480469 210.808594 240.363281 C 208.539062 229.699219 205.792969 217.960938 202.488281 205.546875 C 200.816406 199.21875 198.945312 192.734375 196.957031 186.128906 C 195.722656 182.109375 194.449219 178.011719 193.132812 173.914062 C 189.671875 163.328125 185.808594 152.503906 181.507812 141.722656 C 182.542969 122.421875 184.851562 104.675781 187.957031 88.558594 L 218.851562 88.558594 C 218.851562 88.558594 220.484375 91.941406 223.191406 98.03125 C 225.859375 103.960938 229.519531 112.476562 233.78125 122.980469 C 233.941406 123.335938 234.058594 123.734375 234.21875 124.09375 C 236.648438 130.101562 239.234375 136.746094 241.941406 143.910156 C 244.210938 150 246.558594 156.445312 248.910156 163.167969 C 251.335938 170.09375 253.726562 177.375 256.074219 184.894531 C 256.195312 185.332031 256.351562 185.730469 256.472656 186.167969 C 256.871094 187.402344 257.230469 188.636719 257.628906 189.910156 C 259.179688 194.921875 260.652344 200.015625 262.125 205.1875 C 262.921875 208.015625 263.71875 210.839844 264.476562 213.703125 C 264.753906 214.699219 265.03125 215.734375 265.269531 216.730469 C 270.882812 238.214844 275.542969 260.699219 278.050781 282.742188 Z M 278.050781 282.742188 " fill-opacity="1" fill-rule="nonzero"/><path fill="#7d064f" d="M 278.050781 282.824219 L 277.972656 282.824219 L 252.492188 288.710938 L 250.699219 289.109375 C 239.511719 277.769531 228.644531 265.710938 218.253906 253.335938 C 217.257812 252.183594 216.304688 250.988281 215.347656 249.835938 C 214.234375 248.484375 213.117188 247.128906 212.003906 245.777344 C 211.882812 245.179688 211.566406 243.746094 211.566406 243.707031 C 211.566406 243.707031 211.089844 241.480469 210.890625 240.363281 C 208.621094 229.699219 205.875 217.960938 202.570312 205.546875 C 200.898438 199.21875 199.027344 192.734375 197.035156 186.128906 C 196.996094 146.734375 203.445312 113.667969 210.929688 88.558594 L 218.890625 88.558594 C 218.890625 88.558594 220.523438 91.941406 223.230469 98.03125 C 225.898438 103.960938 229.5625 112.476562 233.820312 122.980469 C 233.980469 123.335938 234.097656 123.734375 234.257812 124.09375 C 236.6875 130.101562 239.273438 136.746094 241.980469 143.910156 C 244.25 150 246.601562 156.445312 248.949219 163.167969 C 251.378906 170.09375 253.765625 177.375 256.113281 184.894531 C 256.234375 185.332031 256.394531 185.730469 256.511719 186.167969 C 256.910156 187.402344 257.269531 188.636719 257.667969 189.910156 C 259.21875 194.921875 260.691406 200.015625 262.164062 205.1875 C 262.960938 208.015625 263.757812 210.839844 264.515625 213.703125 C 264.792969 214.699219 265.070312 215.734375 265.3125 216.730469 C 270.925781 238.214844 275.582031 260.699219 278.089844 282.742188 C 278.050781 282.742188 278.050781 282.78125 278.050781 282.824219 Z M 278.050781 282.824219 " fill-opacity="1" fill-rule="nonzero"/><path fill="#570035" d="M 278.050781 282.824219 L 277.972656 282.824219 L 252.492188 288.710938 L 250.699219 289.109375 L 243.015625 290.902344 C 235.332031 280.476562 224.785156 277.371094 216.382812 269.691406 C 216.34375 269.414062 216.304688 269.132812 216.222656 268.855469 C 216.105469 268.140625 215.984375 267.382812 215.867188 266.628906 C 215.070312 261.933594 214.113281 256.800781 213.039062 251.269531 C 213.039062 251.269531 213.039062 251.226562 213.039062 251.226562 C 211.328125 242.472656 210.53125 233.5625 210.730469 224.648438 C 211.726562 178.726562 223.75 144.984375 234.21875 124.09375 C 236.648438 130.101562 239.234375 136.746094 241.941406 143.910156 C 244.210938 150 246.558594 156.445312 248.910156 163.167969 C 251.335938 170.09375 253.726562 177.375 256.074219 184.894531 C 256.195312 185.332031 256.351562 185.730469 256.472656 186.167969 C 256.871094 187.402344 257.230469 188.636719 257.628906 189.910156 C 259.179688 194.921875 260.652344 200.015625 262.125 205.1875 C 262.921875 208.015625 263.71875 210.839844 264.476562 213.703125 C 264.753906 214.699219 265.03125 215.734375 265.269531 216.730469 C 270.882812 238.214844 275.542969 260.699219 278.050781 282.742188 C 278.050781 282.742188 278.050781 282.78125 278.050781 282.824219 Z M 278.050781 282.824219 " fill-opacity="1" fill-rule="nonzero"/><path fill="#e6289c" d="M 215.824219 94.410156 L 162.917969 95.007812 L 168.53125 112.277344 C 166.9375 109.050781 165.34375 105.828125 163.671875 102.644531 C 161.164062 97.871094 158.578125 93.175781 155.871094 88.558594 L 218.851562 88.558594 C 218.851562 88.558594 220.484375 91.941406 223.191406 98.03125 C 225.859375 103.960938 229.519531 112.476562 233.78125 122.980469 C 236.328125 129.265625 239.074219 136.308594 241.941406 143.910156 C 232.269531 123.578125 222.714844 103.523438 215.824219 94.410156 Z M 215.824219 94.410156 " fill-opacity="1" fill-rule="nonzero"/><path fill="#570035" d="M 154.238281 295.636719 C 154.199219 295.792969 154.199219 295.914062 154.160156 296.074219 L 100.175781 283.617188 L 96.671875 282.824219 C 98.464844 267.222656 101.289062 251.425781 104.792969 235.910156 C 106.226562 229.460938 107.820312 223.054688 109.449219 216.730469 C 109.730469 215.734375 109.96875 214.699219 110.246094 213.703125 C 111.003906 210.839844 111.800781 208.015625 112.597656 205.1875 C 114.070312 200.015625 115.542969 194.921875 117.09375 189.910156 C 117.492188 188.636719 117.851562 187.402344 118.25 186.167969 C 118.367188 185.730469 118.527344 185.292969 118.648438 184.894531 C 120.996094 177.375 123.425781 170.132812 125.8125 163.167969 C 127.605469 158.074219 129.355469 153.101562 131.109375 148.367188 C 134.890625 154.773438 138.273438 161.496094 141.300781 168.460938 C 151.492188 191.859375 157.066406 217.523438 158.019531 244.304688 C 158.578125 261.097656 157.34375 278.285156 154.238281 295.636719 Z M 154.238281 295.636719 " fill-opacity="1" fill-rule="nonzero"/><path fill="#7d064f" d="M 161.761719 250.671875 C 161.722656 250.871094 161.683594 251.070312 161.644531 251.269531 C 160.566406 256.800781 159.613281 261.933594 158.816406 266.628906 C 158.695312 267.382812 158.578125 268.140625 158.417969 268.855469 C 158.058594 270.886719 157.742188 272.835938 157.464844 274.707031 C 157.023438 277.332031 156.667969 279.757812 156.308594 281.988281 C 156.1875 282.625 156.070312 283.300781 155.910156 283.9375 C 155.75 284.734375 155.59375 285.488281 155.472656 286.246094 C 155.394531 286.523438 155.351562 286.839844 155.3125 287.121094 C 152.007812 289.785156 148.425781 291.933594 144.804688 294.003906 L 96.59375 282.78125 C 99.101562 260.699219 103.757812 238.214844 109.371094 216.6875 C 109.648438 215.695312 109.890625 214.660156 110.167969 213.664062 C 110.925781 210.800781 111.71875 207.976562 112.515625 205.148438 C 113.988281 199.976562 115.460938 194.882812 117.015625 189.871094 C 117.414062 188.597656 117.769531 187.363281 118.167969 186.128906 C 118.289062 185.691406 118.449219 185.253906 118.566406 184.855469 C 120.917969 177.335938 123.34375 170.09375 125.734375 163.128906 C 127.921875 156.800781 130.113281 150.714844 132.261719 144.945312 C 132.382812 144.585938 132.542969 144.226562 132.660156 143.871094 C 133.535156 141.523438 134.414062 139.214844 135.289062 136.945312 C 147.351562 158.871094 160.808594 193.449219 161.921875 240.085938 C 162.082031 243.628906 162 247.167969 161.761719 250.671875 Z M 161.761719 250.671875 " fill-opacity="1" fill-rule="nonzero"/><path fill="#e6289c" d="M 104.59375 285.609375 L 88.789062 282.1875 C 80.945312 280.914062 74.65625 274.984375 74.65625 266.429688 C 74.65625 265.992188 74.65625 265.59375 74.695312 265.195312 C 77.324219 268.339844 81.144531 270.328125 85.40625 270.328125 C 92.171875 270.328125 97.90625 265.234375 99.457031 258.390625 C 101.925781 242.792969 100.375 223.253906 95.953125 208.253906 C 133.136719 241 104.59375 285.609375 104.59375 285.609375 Z M 104.59375 285.609375 " fill-opacity="1" fill-rule="nonzero"/><path fill="#e6289c" d="M 299.667969 266.429688 C 299.667969 274.945312 293.417969 281.3125 285.574219 282.1875 L 269.730469 285.609375 C 269.730469 285.609375 241.183594 241 278.410156 208.253906 C 274.230469 222.457031 272.636719 240.683594 274.546875 255.84375 C 274.585938 256.640625 274.707031 257.394531 274.867188 258.152344 C 276.339844 265.117188 282.109375 270.289062 288.957031 270.289062 C 293.179688 270.289062 297 268.296875 299.667969 265.15625 C 299.667969 265.59375 299.667969 265.992188 299.667969 266.429688 Z M 299.667969 266.429688 " fill-opacity="1" fill-rule="nonzero"/><path fill="#e6289c" d="M 274.867188 258.152344 C 274.707031 257.394531 274.585938 256.640625 274.546875 255.84375 C 274.625 256.601562 274.746094 257.394531 274.867188 258.152344 Z M 274.867188 258.152344 " fill-opacity="1" fill-rule="nonzero"/><path fill="#e6289c" d="M 371.765625 93.492188 C 371.367188 95.246094 370.890625 96.957031 370.371094 98.628906 C 370.292969 98.90625 370.171875 99.183594 370.09375 99.460938 C 368.421875 104.476562 366.152344 109.132812 363.40625 113.351562 C 360.578125 117.6875 357.273438 121.546875 353.570312 124.851562 C 349.828125 128.191406 345.730469 131.015625 341.308594 133.207031 L 341.390625 133.367188 C 341.308594 133.40625 341.191406 133.445312 341.109375 133.523438 C 338.84375 134.636719 336.652344 135.832031 334.460938 137.105469 C 330.402344 139.453125 326.5 142 322.796875 144.707031 C 322.679688 144.269531 322.597656 143.832031 322.480469 143.351562 C 322.320312 142.597656 322.160156 141.839844 322 141.085938 C 321.804688 140.25 321.644531 139.375 321.484375 138.539062 C 321.363281 137.941406 321.246094 137.304688 321.125 136.707031 C 317.621094 118.125 316.667969 98.667969 318.378906 78.769531 C 318.378906 78.730469 318.378906 78.730469 318.378906 78.691406 C 318.378906 78.691406 318.378906 78.652344 318.378906 78.652344 C 318.378906 78.652344 318.378906 78.613281 318.378906 78.613281 C 318.378906 78.613281 318.378906 78.613281 318.378906 78.570312 C 337.210938 89.792969 355.484375 91.664062 373.238281 84.222656 C 372.960938 87.285156 372.480469 90.390625 371.765625 93.492188 Z M 371.765625 93.492188 " fill-opacity="1" fill-rule="nonzero"/><path fill="#ab0c6e" d="M 341.351562 133.324219 C 341.230469 133.367188 341.152344 133.40625 341.070312 133.484375 C 334.542969 136.746094 328.410156 140.488281 322.757812 144.667969 C 317.105469 148.804688 311.929688 153.378906 307.152344 158.316406 C 298.273438 167.546875 290.949219 178.132812 285.335938 189.789062 C 272.316406 216.730469 259.65625 255.089844 274.585938 284.574219 L 264.316406 286.800781 L 220.164062 296.191406 C 220.125 296.035156 220.085938 295.835938 220.085938 295.675781 C 216.980469 278.285156 215.746094 261.097656 216.304688 244.34375 C 217.21875 217.523438 222.832031 191.898438 233.023438 168.5 C 242.539062 146.574219 255.796875 127.277344 272.277344 111.160156 C 285.375 98.347656 300.503906 87.523438 317.382812 79.050781 C 317.703125 78.890625 317.980469 78.730469 318.300781 78.570312 L 318.300781 78.652344 L 318.339844 78.730469 L 341.308594 133.207031 Z M 341.351562 133.324219 " fill-opacity="1" fill-rule="nonzero"/><path fill="#9c1066" d="M 341.308594 133.167969 L 341.390625 133.324219 C 341.308594 133.367188 341.191406 133.40625 341.109375 133.484375 C 334.582031 136.746094 328.453125 140.488281 322.796875 144.625 C 317.144531 148.765625 311.96875 153.339844 307.191406 158.273438 C 298.3125 167.507812 290.988281 178.089844 285.375 189.75 C 272.359375 216.6875 255.398438 249.4375 274.625 284.535156 L 264.355469 286.761719 C 255.199219 256.601562 252.492188 225.761719 256.394531 196.039062 C 278.925781 161.9375 278.847656 154.097656 287.207031 126.679688 C 295.566406 99.265625 303.648438 91.742188 318.300781 78.570312 C 318.300781 78.570312 318.300781 78.570312 318.339844 78.570312 L 318.339844 78.613281 L 353.53125 124.851562 C 349.828125 128.191406 345.6875 131.019531 341.308594 133.167969 Z M 341.308594 133.167969 " fill-opacity="1" fill-rule="nonzero"/><path fill="#7d064f" d="M 363.40625 113.351562 C 360.578125 117.6875 357.273438 121.546875 353.570312 124.851562 C 349.828125 128.191406 345.730469 131.015625 341.308594 133.207031 L 341.390625 133.367188 C 341.308594 133.40625 341.191406 133.445312 341.109375 133.523438 C 334.582031 136.789062 328.453125 140.527344 322.796875 144.667969 C 317.144531 148.804688 311.96875 153.378906 307.191406 158.316406 C 298.3125 167.546875 290.988281 178.132812 285.375 189.789062 C 285.257812 180.875 272.238281 182.347656 273.351562 173.59375 C 285.695312 161.816406 299.707031 145.023438 301.300781 126.480469 C 302.972656 106.625 304.167969 91.742188 318.378906 78.652344 C 318.378906 78.652344 318.378906 78.652344 318.378906 78.613281 C 318.378906 78.613281 318.378906 78.613281 318.378906 78.570312 C 321.761719 101.132812 339.597656 110.046875 363.40625 113.351562 Z M 363.40625 113.351562 " fill-opacity="1" fill-rule="nonzero"/><path fill="#570035" d="M 370.09375 99.460938 C 368.421875 104.476562 366.152344 109.132812 363.40625 113.351562 C 360.578125 117.6875 357.273438 121.546875 353.570312 124.851562 C 349.828125 128.191406 345.730469 131.015625 341.308594 133.207031 L 341.390625 133.367188 C 341.308594 133.40625 341.191406 133.445312 341.109375 133.523438 C 334.582031 136.789062 328.453125 140.527344 322.796875 144.667969 C 317.144531 148.804688 311.96875 153.378906 307.191406 158.316406 C 306.992188 155.25 301.101562 149.878906 301.101562 149.878906 C 301.101562 149.878906 315.195312 138.257812 318.101562 123.457031 C 320.609375 110.761719 311.691406 98.070312 318.339844 78.691406 C 318.339844 78.691406 318.339844 78.652344 318.339844 78.652344 C 318.339844 78.652344 318.339844 78.652344 318.339844 78.613281 C 318.339844 78.613281 318.339844 78.613281 318.339844 78.570312 C 331.996094 95.921875 349.035156 103.441406 370.09375 99.460938 Z M 370.09375 99.460938 " fill-opacity="1" fill-rule="nonzero"/><path fill="#e6289c" d="M 370.371094 98.628906 C 370.292969 98.90625 370.171875 99.183594 370.09375 99.460938 C 368.421875 104.476562 366.152344 109.132812 363.40625 113.351562 C 360.578125 117.6875 357.273438 121.546875 353.570312 124.851562 C 349.828125 128.191406 345.730469 131.015625 341.308594 133.207031 L 341.390625 133.367188 C 341.308594 133.40625 341.191406 133.445312 341.109375 133.523438 C 338.84375 134.636719 336.652344 135.832031 334.460938 137.105469 C 330.960938 138.855469 326.976562 140.886719 322.480469 143.351562 C 315.910156 146.972656 308.226562 151.550781 298.953125 157.835938 C 259.777344 184.496094 238.4375 227.152344 238.4375 227.152344 C 263.398438 171.921875 298.710938 150.355469 312.726562 142.277344 C 327.335938 133.882812 342.625 130.382812 353.492188 119.519531 C 364.402344 108.65625 365.875 97.3125 365.875 97.3125 L 370.132812 93.375 C 370.132812 93.335938 371.328125 94.449219 370.371094 98.628906 Z M 370.371094 98.628906 " fill-opacity="1" fill-rule="nonzero"/><path fill="#570035" d="M 341.070312 133.484375 C 334.542969 136.746094 328.410156 140.488281 322.757812 144.625 C 317.105469 148.765625 311.929688 153.339844 307.152344 158.273438 C 306.039062 159.429688 304.960938 160.582031 303.886719 161.777344 C 296.484375 170.132812 290.234375 179.523438 285.296875 189.75 C 272.277344 216.6875 255.359375 279.320312 274.546875 284.535156 L 264.277344 286.761719 L 247.753906 290.265625 L 220.125 296.152344 C 220.085938 295.992188 220.046875 295.792969 220.046875 295.636719 C 224.027344 258.03125 236.449219 223.929688 256.351562 196.039062 C 256.832031 195.402344 257.269531 194.765625 257.746094 194.128906 C 266.304688 182.46875 276.019531 172.121094 286.808594 163.25 C 293.140625 158.035156 299.789062 153.300781 306.792969 149.121094 C 311.691406 146.179688 316.746094 143.472656 321.921875 141.046875 C 325.1875 139.53125 328.492188 138.101562 331.835938 136.789062 C 334.460938 135.753906 337.128906 134.796875 339.835938 133.882812 C 340.234375 133.722656 340.671875 133.605469 341.070312 133.484375 Z M 341.070312 133.484375 " fill-opacity="1" fill-rule="nonzero"/><path fill="#7d064f" d="M 274.585938 284.535156 L 264.316406 286.761719 L 261.808594 287.28125 L 247.753906 290.265625 C 249.226562 263.84375 255.238281 238.695312 265.710938 215.894531 C 266.027344 215.175781 266.386719 214.421875 266.742188 213.703125 C 273.035156 200.453125 280.71875 188.238281 289.675781 177.253906 C 294.09375 171.804688 298.832031 166.632812 303.886719 161.816406 C 296.484375 170.171875 290.234375 179.5625 285.296875 189.789062 C 284.660156 191.0625 284.0625 192.375 283.503906 193.6875 C 271.960938 219.832031 257.386719 279.601562 274.585938 284.535156 Z M 274.585938 284.535156 " fill-opacity="1" fill-rule="nonzero"/><path fill="#9c1066" d="M 275.503906 284.335938 L 264.316406 286.761719 L 261.808594 287.28125 C 261.570312 267.304688 264.117188 247.726562 269.410156 229.0625 C 269.648438 228.269531 269.847656 227.511719 270.089844 226.714844 C 273.550781 215.136719 278.011719 204.074219 283.464844 193.609375 C 271.960938 219.832031 262.960938 269.375 275.503906 284.335938 Z M 275.503906 284.335938 " fill-opacity="1" fill-rule="nonzero"/><path fill="#e6289c" d="M 2.558594 93.492188 C 2.957031 95.246094 3.433594 96.957031 3.953125 98.628906 C 4.03125 98.90625 4.152344 99.183594 4.230469 99.460938 C 5.902344 104.476562 8.171875 109.132812 10.917969 113.351562 C 13.746094 117.6875 17.050781 121.546875 20.753906 124.851562 C 24.496094 128.191406 28.59375 131.015625 33.015625 133.207031 L 32.933594 133.367188 C 33.015625 133.40625 33.132812 133.445312 33.210938 133.523438 C 35.480469 134.636719 37.671875 135.832031 39.859375 137.105469 C 43.921875 139.453125 47.824219 142 51.527344 144.707031 C 51.644531 144.269531 51.726562 143.832031 51.84375 143.351562 C 52.003906 142.597656 52.164062 141.839844 52.320312 141.085938 C 52.519531 140.25 52.679688 139.375 52.839844 138.539062 C 52.960938 137.941406 53.078125 137.304688 53.199219 136.707031 C 56.703125 118.125 57.65625 98.667969 55.945312 78.769531 C 55.945312 78.730469 55.945312 78.730469 55.945312 78.691406 C 55.945312 78.691406 55.945312 78.652344 55.945312 78.652344 C 55.945312 78.652344 55.945312 78.613281 55.945312 78.613281 C 55.945312 78.613281 55.945312 78.613281 55.945312 78.570312 C 37.113281 89.792969 18.839844 91.664062 1.085938 84.222656 C 1.324219 87.285156 1.800781 90.390625 2.558594 93.492188 Z M 2.558594 93.492188 " fill-opacity="1" fill-rule="nonzero"/><path fill="#ab0c6e" d="M 154.238281 295.636719 C 154.199219 295.792969 154.199219 295.914062 154.160156 296.074219 C 154.160156 296.113281 154.160156 296.152344 154.160156 296.152344 L 110.007812 286.761719 L 99.738281 284.535156 C 99.894531 284.214844 100.054688 283.9375 100.214844 283.617188 C 107.300781 269.015625 107.738281 252.261719 104.832031 235.867188 C 101.886719 219.355469 95.515625 203.121094 89.027344 189.75 C 83.375 178.089844 76.089844 167.507812 67.210938 158.273438 C 62.472656 153.339844 57.257812 148.765625 51.605469 144.625 C 45.953125 140.449219 39.820312 136.707031 33.292969 133.445312 C 33.210938 133.40625 33.09375 133.367188 33.015625 133.285156 L 33.09375 133.125 L 56.0625 78.652344 L 56.105469 78.570312 L 56.105469 78.492188 C 56.421875 78.652344 56.703125 78.8125 57.019531 78.96875 C 73.898438 87.445312 89.027344 98.269531 102.125 111.082031 C 113.351562 122.066406 123.105469 134.519531 131.1875 148.289062 C 134.96875 154.695312 138.355469 161.417969 141.378906 168.382812 C 151.570312 191.78125 157.144531 217.445312 158.101562 244.226562 C 158.578125 261.097656 157.34375 278.285156 154.238281 295.636719 Z M 154.238281 295.636719 " fill-opacity="1" fill-rule="nonzero"/><path fill="#9c1066" d="M 33.015625 133.167969 L 32.933594 133.324219 C 33.015625 133.367188 33.132812 133.40625 33.210938 133.484375 C 39.742188 136.746094 45.871094 140.488281 51.527344 144.625 C 57.179688 148.765625 62.355469 153.339844 67.132812 158.273438 C 76.007812 167.507812 83.335938 178.089844 88.949219 189.75 C 101.964844 216.6875 118.925781 249.4375 99.695312 284.535156 L 109.96875 286.761719 C 119.125 256.601562 121.832031 225.761719 117.929688 196.039062 C 95.398438 161.9375 95.476562 154.097656 87.117188 126.679688 C 78.757812 99.265625 70.675781 91.742188 56.023438 78.570312 C 56.023438 78.570312 56.023438 78.570312 55.984375 78.570312 L 55.984375 78.613281 L 20.753906 124.851562 C 24.496094 128.191406 28.59375 131.019531 33.015625 133.167969 Z M 33.015625 133.167969 " fill-opacity="1" fill-rule="nonzero"/><path fill="#7d064f" d="M 10.917969 113.351562 C 13.746094 117.6875 17.050781 121.546875 20.753906 124.851562 C 24.496094 128.191406 28.59375 131.015625 33.015625 133.207031 L 32.933594 133.367188 C 33.015625 133.40625 33.132812 133.445312 33.210938 133.523438 C 39.742188 136.789062 45.871094 140.527344 51.527344 144.667969 C 57.179688 148.804688 62.355469 153.378906 67.132812 158.316406 C 76.007812 167.546875 83.335938 178.132812 88.949219 189.789062 C 89.066406 180.875 102.085938 182.347656 100.972656 173.59375 C 88.628906 161.816406 74.617188 145.023438 73.023438 126.480469 C 71.351562 106.625 70.15625 91.742188 55.945312 78.652344 C 55.945312 78.652344 55.945312 78.652344 55.945312 78.613281 C 55.945312 78.613281 55.945312 78.613281 55.945312 78.570312 C 52.5625 101.132812 34.726562 110.046875 10.917969 113.351562 Z M 10.917969 113.351562 " fill-opacity="1" fill-rule="nonzero"/><path fill="#570035" d="M 4.230469 99.460938 C 5.902344 104.476562 8.171875 109.132812 10.917969 113.351562 C 13.746094 117.6875 17.050781 121.546875 20.753906 124.851562 C 24.496094 128.191406 28.59375 131.015625 33.015625 133.207031 L 32.933594 133.367188 C 33.015625 133.40625 33.132812 133.445312 33.210938 133.523438 C 39.742188 136.789062 45.871094 140.527344 51.527344 144.667969 C 57.179688 148.804688 62.355469 153.378906 67.132812 158.316406 C 67.332031 155.25 73.222656 149.878906 73.222656 149.878906 C 73.222656 149.878906 59.128906 138.257812 56.222656 123.457031 C 53.714844 110.761719 62.632812 98.070312 55.984375 78.691406 C 55.984375 78.691406 55.984375 78.652344 55.984375 78.652344 C 55.984375 78.652344 55.984375 78.652344 55.984375 78.613281 C 55.984375 78.613281 55.984375 78.613281 55.984375 78.570312 C 42.328125 95.921875 25.25 103.441406 4.230469 99.460938 Z M 4.230469 99.460938 " fill-opacity="1" fill-rule="nonzero"/><path fill="#e6289c" d="M 3.953125 98.628906 C 4.03125 98.90625 4.152344 99.183594 4.230469 99.460938 C 5.902344 104.476562 8.171875 109.132812 10.917969 113.351562 C 13.746094 117.6875 17.050781 121.546875 20.753906 124.851562 C 24.496094 128.191406 28.59375 131.015625 33.015625 133.207031 L 32.933594 133.367188 C 33.015625 133.40625 33.132812 133.445312 33.210938 133.523438 C 35.480469 134.636719 37.671875 135.832031 39.859375 137.105469 C 43.363281 138.855469 47.347656 140.886719 51.84375 143.351562 C 58.414062 146.972656 66.097656 151.550781 75.371094 157.835938 C 114.546875 184.496094 135.886719 227.152344 135.886719 227.152344 C 110.925781 171.921875 75.613281 150.355469 61.597656 142.277344 C 46.988281 133.882812 31.699219 130.382812 20.832031 119.519531 C 9.964844 108.65625 8.449219 97.3125 8.449219 97.3125 L 4.191406 93.375 C 4.191406 93.335938 2.996094 94.449219 3.953125 98.628906 Z M 3.953125 98.628906 " fill-opacity="1" fill-rule="nonzero"/><path fill="#570035" d="M 33.253906 133.484375 C 39.78125 136.746094 45.914062 140.488281 51.566406 144.625 C 57.21875 148.765625 62.394531 153.339844 67.171875 158.273438 C 68.285156 159.429688 69.359375 160.582031 70.4375 161.777344 C 77.839844 170.132812 84.089844 179.523438 89.027344 189.75 C 102.046875 216.6875 118.964844 279.320312 99.777344 284.535156 L 110.046875 286.761719 L 126.570312 290.265625 L 154.199219 296.152344 C 154.238281 295.992188 154.078125 293.644531 153.960938 292.691406 C 149.621094 256.242188 137.359375 223.214844 117.96875 196.039062 C 117.492188 195.402344 117.054688 194.765625 116.578125 194.128906 C 108.019531 182.46875 98.304688 172.121094 87.515625 163.25 C 81.183594 158.035156 74.535156 153.300781 67.53125 149.121094 C 62.632812 146.179688 57.578125 143.472656 52.402344 141.046875 C 49.136719 139.53125 45.832031 138.101562 42.488281 136.789062 C 39.859375 135.753906 37.195312 134.796875 34.488281 133.882812 C 34.050781 133.722656 33.652344 133.605469 33.253906 133.484375 Z M 33.253906 133.484375 " fill-opacity="1" fill-rule="nonzero"/><path fill="#7d064f" d="M 99.695312 284.535156 L 109.96875 286.761719 L 112.476562 287.28125 L 126.53125 290.265625 C 125.058594 263.84375 119.046875 238.695312 108.574219 215.894531 C 108.257812 215.175781 107.898438 214.421875 107.539062 213.703125 C 101.25 200.453125 93.566406 188.238281 84.609375 177.253906 C 80.191406 171.804688 75.453125 166.632812 70.394531 161.816406 C 77.800781 170.171875 84.050781 179.5625 88.988281 189.789062 C 89.625 191.0625 90.222656 192.375 90.78125 193.6875 C 102.363281 219.832031 116.933594 279.601562 99.695312 284.535156 Z M 99.695312 284.535156 " fill-opacity="1" fill-rule="nonzero"/><path fill="#9c1066" d="M 98.820312 284.335938 L 110.007812 286.761719 L 112.515625 287.28125 C 112.753906 267.304688 110.207031 247.726562 104.914062 229.0625 C 104.671875 228.269531 104.472656 227.511719 104.234375 226.714844 C 100.773438 215.136719 96.3125 204.074219 90.859375 193.609375 C 102.363281 219.832031 111.363281 269.375 98.820312 284.335938 Z M 98.820312 284.335938 " fill-opacity="1" fill-rule="nonzero"/><path fill="#e6289c" d="M 318.300781 78.652344 C 227.492188 129.386719 217.300781 233.082031 216.304688 244.34375 C 217.21875 217.523438 222.832031 191.898438 233.023438 168.5 C 242.539062 146.574219 255.796875 127.277344 272.277344 111.160156 C 285.375 98.347656 300.503906 87.523438 317.382812 79.050781 Z M 318.300781 78.652344 " fill-opacity="1" fill-rule="nonzero"/><path fill="#e6289c" d="M 55.984375 78.652344 C 146.792969 129.386719 156.984375 233.121094 157.980469 244.34375 C 157.066406 217.523438 151.453125 191.898438 141.261719 168.5 C 131.746094 146.574219 118.488281 127.277344 102.007812 111.160156 C 88.910156 98.347656 73.78125 87.523438 56.902344 79.050781 Z M 55.984375 78.652344 " fill-opacity="1" fill-rule="nonzero"/></svg>